<svg xmlns="http://www.w3.org/2000/svg" viewBox="0 0 730.49 383.99"><defs><style>.cls-1{fill:#fff;}</style></defs><title>Asset 3</title><g id="Layer_2" data-name="Layer 2"><g id="NFL"><path class="cls-1" d="M156.57,20.4A97.16,97.16,0,0,1,142.93,0a97.6,97.6,0,0,1-13.65,20.4C95.73,58.79,39,63.84,0,33V288.38C.55,318.1,23.43,328.16,44.56,336l16.53,4.63c24.83,3.16,48.94,9.25,81.7,43.37a2.43,2.43,0,0,1,.14-.2l.14.2c32.76-34.12,56.87-40.21,81.69-43.37L241.3,336c21.13-7.83,44-17.89,44.56-47.61V33C246.83,63.84,190.13,58.79,156.57,20.4Zm62.77,126L207,137l-12.34,8.87,4.74-14.11-11.59-9.44h14.45L207,108.79l4.76,13.54h15l-12,9.53ZM201.86,78.08l4.74-13.53,4.75,13.53h15l-12,9.54L219,102.21,206.6,92.77l-12.34,8.87L199,87.52l-11.59-9.44Zm-88.94-.87c21-34,65-27.58,65-27.58s15.93,32.95-3.53,62.94c-23.45,36.13-67.61,28.7-67.61,28.7S92.14,110.77,112.92,77.21Zm-39,.87,4.74-13.53,4.75,13.53h15l-12,9.54L91,102.21,78.68,92.77l-12.35,8.87,4.75-14.12L59.49,78.08Zm0,44.25,4.74-13.54,4.75,13.54h15l-12,9.53L91,146.45,78.68,137l-12.35,8.87,4.75-14.11-11.59-9.44ZM26.05,78.08l4.74-13.53,4.76,13.53h15l-12,9.54,4.55,14.59L30.79,92.77l-12.34,8.87L23.2,87.52,11.61,78.08Zm.38,44.25,4.74-13.54,4.76,13.54h15l-12,9.53,4.57,14.59L31.17,137l-12.34,8.87,4.74-14.11L12,122.33ZM271.7,279c-.49,27.29-21.11,36.53-40.15,43.72L216.66,327c-22.37,2.91-44.09,8.5-73.6,39.84l-.13-.18-.13.18C113.29,335.48,91.57,329.89,69.2,327l-14.9-4.25c-19-7.19-39.65-16.43-40.15-43.72V156.33H271.7Zm-9.42-147.15,4.56,14.59L254.49,137l-12.35,8.87,4.74-14.11-11.58-9.44h14.44l4.75-13.54,4.75,13.54h15Zm0-44.24,4.56,14.59-12.35-9.44-12.35,8.87,4.74-14.12L235.3,78.08h14.44l4.75-13.53,4.75,13.53h15Z"/><path class="cls-1" d="M130.76,75.4l19.69,10.07c.75-.8,1.51-1.58,2.27-2.36L133,73C132.23,73.79,131.49,74.59,130.76,75.4Z"/><path class="cls-1" d="M124.12,83.84l19.18,9.81c.74-.93,1.51-1.85,2.28-2.76L126.17,81C125.47,81.9,124.78,82.86,124.12,83.84Z"/><path class="cls-1" d="M119,92.62l18.5,9.46c.53-.91,1.08-1.8,1.64-2.68l-18.66-9.54C119.92,90.77,119.43,91.69,119,92.62Z"/><path class="cls-1" d="M150.31,58.67c-1,.65-1.93,1.32-2.92,2l19,9.72c.88-.75,1.75-1.48,2.6-2.18Z"/><path class="cls-1" d="M138.38,67.87l19.65,10,2.69-2.49-19.52-10C140.26,66.22,139.31,67,138.38,67.87Z"/><path class="cls-1" d="M160.18,65.34a255.13,255.13,0,0,1,20.4-16.14l-1.68-1.13s-10.14,3.57-23.57,14.76Z"/><path class="cls-1" d="M127.39,94.9c-13.66,21.77-22.11,46.87-22.11,46.87l2,1.21s10.54-25.73,24.09-46.09Z"/><path class="cls-1" d="M150.55,172.57H119.64V192h8.15V304.4c-5-.57-9.3-.88-9.3-.88V321.1a123.26,123.26,0,0,1,18.44,3.45c6.17,1.87,21.33,8.94,21.33,8.94V314a60.83,60.83,0,0,0-7.71-4V247.2h11.91l2.86,8h12.79v-36H165.32l-3.06,8.58H150.55V192h15l4.9,11.41h15.42V172.57Z"/><path class="cls-1" d="M105,172.57H75.62V192h6.63v47.47l-23.78-68v-.06H29.22v19.43H35.7v85.51c-5.23-.27-9.78-.28-9.78-.28l1.58,19.77s10.88.44,18.7,2.42c6.31,1.6,22.06,8.35,22.06,8.35l-1.75-21.88a58.31,58.31,0,0,0-8-3.82V240.45L83.1,310.88,105,317.65V192h6.34V172.57Z"/><path class="cls-1" d="M240.58,253v27.63c-6,1.34-12.53,2.89-18,4.43V192l6.63-3V172.57h-36V189l6.63,3V294.17c-3.87,2-7.17,3.95-9.8,5.62V322c7.2-4.15,25.11-14.31,33.82-17.82,16.72-6.72,34.7-8.31,34.7-8.31V253Z"/><path class="cls-1" d="M354.59,249.27a39.06,39.06,0,0,1-10.42-1.42,35.4,35.4,0,0,1-9.83-4.43,36.83,36.83,0,0,1-12.6-13.57,37.73,37.73,0,0,1-4.5-18.23h25.35q0,4.5,2,7A14.11,14.11,0,0,0,348,222a11.35,11.35,0,0,0,5.85,1.95,13.27,13.27,0,0,0,6.15-1.2,10,10,0,0,0,3.38-2.25,12.22,12.22,0,0,0,1.95-2.62,7.23,7.23,0,0,0,.82-2.48,12.75,12.75,0,0,0,0-3.9,7.94,7.94,0,0,0-.82-2.55,10.18,10.18,0,0,0-1.95-2.62A12.92,12.92,0,0,0,360,204a32.22,32.22,0,0,0-3.52-1.35c-1.25-.4-2.58-.85-4-1.35q-3.75-1.2-7.8-2.7a43.75,43.75,0,0,1-8.1-4,31.68,31.68,0,0,1-8.85-8.25,32.77,32.77,0,0,1-6.22-22.42,31.11,31.11,0,0,1,3.37-11.63,33,33,0,0,1,6.75-8.85,32.27,32.27,0,0,1,9-5.92,32.67,32.67,0,0,1,10.65-2.63,35.11,35.11,0,0,1,11.55,1.05,33.67,33.67,0,0,1,10.31,4.28,32.92,32.92,0,0,1,8,7,30.55,30.55,0,0,1,5.14,9.22,31.76,31.76,0,0,1,1.79,10.65H362.84q0-3.45-2.17-4.8a15.07,15.07,0,0,0-3.83-1.8,9.82,9.82,0,0,1-1.42-.22,7.26,7.26,0,0,0-2.55,0,9,9,0,0,0-2.93,1.05,5.86,5.86,0,0,0-2.4,2.62,6.74,6.74,0,0,0-.45,5,7.16,7.16,0,0,0,3,4.12,33.43,33.43,0,0,0,4.65,2.18q2.55,1,5.4,1.87,2.55.75,5.17,1.65t5.31,2.1a35.38,35.38,0,0,1,15.43,13.2,36,36,0,0,1,0,38.55,35.38,35.38,0,0,1-15.43,13.2,35.83,35.83,0,0,1-7.93,2.63A40.48,40.48,0,0,1,354.59,249.27Z"/><path class="cls-1" d="M468.89,136.62V162H447.74v85.2H422.39V162h-21V136.62Z"/><path class="cls-1" d="M546,247.17l-4.35-13.35H507l-4.5,13.35H475.64l37.5-110.1h24l35.55,110.1Zm-30.3-38.7h17.85l-8.7-26.7Z"/><path class="cls-1" d="M646.64,136.62V162H625.49v85.2H600.14V162h-21V136.62Z"/><path class="cls-1" d="M693.44,249.27A39.13,39.13,0,0,1,683,247.85a35.34,35.34,0,0,1-9.82-4.43,36.83,36.83,0,0,1-12.6-13.57,37.73,37.73,0,0,1-4.5-18.23h25.35q0,4.5,1.95,7a14.11,14.11,0,0,0,3.45,3.37,11.35,11.35,0,0,0,5.85,1.95,13.27,13.27,0,0,0,6.15-1.2,9.94,9.94,0,0,0,3.37-2.25,12.22,12.22,0,0,0,1.95-2.62,7.26,7.26,0,0,0,.83-2.48,12.75,12.75,0,0,0,0-3.9,8,8,0,0,0-.83-2.55,10.18,10.18,0,0,0-1.95-2.62,12.85,12.85,0,0,0-3.37-2.33,32.41,32.41,0,0,0-3.53-1.35c-1.25-.4-2.57-.85-4-1.35q-3.75-1.2-7.8-2.7a43.75,43.75,0,0,1-8.1-4,31.68,31.68,0,0,1-8.85-8.25,32.7,32.7,0,0,1-6.23-22.42,31.12,31.12,0,0,1,3.38-11.63,33,33,0,0,1,6.75-8.85,32.27,32.27,0,0,1,9-5.92,32.67,32.67,0,0,1,10.65-2.63,35.11,35.11,0,0,1,11.55,1.05A33.77,33.77,0,0,1,712,140.15a32.68,32.68,0,0,1,8,7,30.37,30.37,0,0,1,5.15,9.22,32,32,0,0,1,1.79,10.65H701.69q0-3.45-2.18-4.8a15,15,0,0,0-3.82-1.8,9.88,9.88,0,0,1-1.43-.22,7.26,7.26,0,0,0-2.55,0,9,9,0,0,0-2.92,1.05,5.86,5.86,0,0,0-2.4,2.62,6.74,6.74,0,0,0-.45,5,7.16,7.16,0,0,0,3,4.12,33.43,33.43,0,0,0,4.65,2.18q2.55,1,5.4,1.87,2.55.75,5.17,1.65t5.3,2.1a35.24,35.24,0,0,1,21,32.55,34.85,34.85,0,0,1-5.59,19.2,37.41,37.41,0,0,1-23.36,15.83A40.48,40.48,0,0,1,693.44,249.27Z"/></g></g></svg>